# Blender v2.91.0 OBJ File: 'PetTest.blend'
# www.blender.org
mtllib BackLeftMountain.mtl
o Plane.003_Plane.005
v -6.324419 1.794219 -22.921841
v -7.075688 1.421255 -21.819944
v -4.779977 0.684789 -21.268440
v -6.579512 0.527931 -20.872896
v -5.339784 0.634676 -22.968573
v -4.732145 0.721052 -21.906315
v -4.903646 1.558014 -21.339197
v -4.979419 1.637787 -21.405436
v -6.529258 1.495456 -21.294628
v -6.636914 0.992168 -21.025721
v -5.406273 1.398566 -23.080030
v -5.520320 1.587645 -22.965633
v -4.941466 1.666575 -21.911921
v -4.804476 1.514327 -21.727119
v -4.596482 0.546662 -20.898640
v -5.325788 0.575618 -23.096558
v -4.303710 0.674367 -22.012266
v -4.437451 -0.636689 -21.155022
v -5.713913 -1.086848 -19.964321
v -6.655402 0.372153 -20.787155
v -4.929856 -0.629836 -22.883663
v -4.174253 -0.592294 -22.013651
v -4.330867 0.203790 -22.010607
v -5.330335 0.127205 -22.939373
v -6.675570 0.129551 -20.635933
v -3.899442 -0.679675 -20.218250
v -5.208482 -0.702793 -19.119278
v -4.470175 -0.207738 -21.247162
v -4.589256 0.287517 -20.865555
v -6.220345 0.204846 -19.738775
v -5.916279 0.021094 -19.323595
v -4.450046 0.371591 -20.605259
v -3.964744 0.176313 -20.402119
v -3.889260 -0.977903 -21.170225
v -4.388870 -0.994230 -22.695303
v -3.821594 -0.811801 -22.023430
v -3.749415 -1.640569 -21.197411
v -4.379560 -1.720622 -22.590363
v -3.681749 -1.474468 -22.050617
v -6.935766 1.552298 -22.460751
v -5.073886 0.674455 -22.528423
v -5.143296 1.453037 -22.494555
v -5.230893 1.627110 -22.438778
v -4.755193 0.639728 -22.607235
v -4.454567 -0.586944 -22.535124
v -4.673556 0.204353 -22.614281
v -4.007744 -0.878895 -22.445833
v -3.933167 -1.573424 -22.406956
v -9.038998 1.545020 -22.601221
v -8.541883 1.380144 -21.799768
v -8.525681 0.441455 -20.830460
v -8.315893 1.424059 -21.259590
v -8.408150 0.922226 -20.991398
v -8.601572 0.285676 -20.744719
v -8.758572 0.030141 -20.587149
v -8.703915 1.378708 -22.169458
v -7.974783 -0.792919 -18.692757
v -8.572512 0.136232 -19.414059
v -8.273977 -0.047807 -18.997520
vt 0.616729 0.532018
vt 0.604026 0.625657
vt 0.673003 0.642406
vt 0.695170 0.534177
vt 0.437844 0.307496
vt 0.379182 0.311915
vt 0.434982 0.564686
vt 0.506469 0.498635
vt 0.614855 0.508935
vt 0.685503 0.502495
vt 0.706605 0.391136
vt 0.654788 0.296455
vt 0.515986 0.492578
vt 0.556473 0.507929
vt 0.578921 0.263792
vt 0.508340 0.328726
vt 0.534691 0.521131
vt 0.515127 0.603918
vt 0.581030 0.664097
vt 0.683932 0.659019
vt 0.383065 0.584234
vt 0.501934 0.650643
vt 0.349505 0.599250
vt 0.479778 0.706082
vt 0.570465 0.720126
vt 0.525934 0.830714
vt 0.617710 0.843090
vt 0.679011 0.729538
vt 0.846973 0.048720
vt 0.722349 0.000000
vt 0.706605 0.130668
vt 0.741582 0.190109
vt 0.846973 0.261583
vt 0.354380 0.298394
vt 0.367483 0.692112
vt 0.266226 0.636824
vt 0.196402 0.712971
vt 0.334242 0.738371
vt 0.320877 0.292310
vt 0.221215 0.334751
vt 0.303412 0.597568
vt 0.153545 0.370210
vt 0.055535 0.501500
vt 0.439370 0.805535
vt 0.297703 0.815630
vt 0.410886 0.858458
vt 0.464689 0.878741
vt 0.528222 0.897292
vt 0.256328 0.903984
vt 0.381045 0.943594
vt 0.442029 0.969553
vt 0.511217 1.000000
vt 0.354356 0.025804
vt 0.316177 0.000000
vt 0.376724 0.038631
vt 0.641469 0.047686
vt 0.591665 0.062815
vt 0.706605 0.013685
vt 0.517059 0.084553
vt 0.442215 0.062007
vt 0.143449 0.386377
vt 0.102480 0.053527
vt 0.000000 0.093777
vt 0.051570 0.485089
vt 0.162357 0.016507
vt 0.203152 0.348570
vn 0.8423 0.3059 -0.4437
vn 0.6218 0.6749 -0.3972
vn 0.5438 0.7380 -0.3995
vn 0.8369 0.3095 -0.4514
vn 0.0477 0.3561 0.9332
vn 0.0415 0.5217 0.8521
vn 0.3908 0.7597 0.5197
vn 0.6013 0.4633 0.6509
vn 0.4380 0.8827 -0.1700
vn 0.4190 0.9036 -0.0886
vn 0.0370 0.9662 0.2549
vn -0.0403 0.9683 0.2465
vn 0.2580 0.8738 0.4121
vn 0.4880 0.8541 -0.1799
vn -0.0593 0.9979 0.0244
vn -0.0485 0.8589 0.5098
vn 0.9166 0.3921 -0.0780
vn 0.6578 0.7460 -0.1034
vn 0.5364 0.6178 -0.5750
vn 0.4959 0.4376 -0.7500
vn 0.5033 0.5607 0.6575
vn 0.7902 0.5998 -0.1251
vn 0.6461 0.7542 0.1168
vn 0.9841 0.0992 -0.1474
vn 0.7009 0.0678 -0.7100
vn 0.6337 0.3578 -0.6859
vn 0.4962 0.1957 -0.8459
vn 0.5354 0.0012 -0.8446
vn -0.7612 -0.4203 0.4939
vn 0.0159 0.2078 0.9780
vn -0.1353 0.4814 0.8660
vn -0.3511 0.8348 0.4239
vn -0.1741 0.8018 0.5717
vn 0.0119 0.5274 0.8495
vn 0.9855 0.1602 -0.0560
vn 0.7808 0.6202 0.0754
vn 0.9048 0.4000 0.1460
vn 0.9173 0.3870 -0.0941
vn 0.2582 0.9604 -0.1048
vn 0.7952 0.6001 -0.0861
vn 0.8283 0.5597 0.0233
vn 0.8210 0.5552 -0.1328
vn 0.6671 0.3802 -0.6406
vn 0.4910 0.2000 -0.8479
vn 0.9425 0.3334 0.0195
vn 0.9628 0.1745 -0.2061
vn 0.6746 0.0273 -0.7376
vn 0.4776 -0.0605 -0.8764
vn -0.0042 0.5127 0.8585
vn -0.0322 0.9305 0.3647
vn 0.0010 0.4191 0.9079
vn -0.0399 0.9531 0.2999
vn -0.0470 0.9977 0.0485
vn -0.0304 0.9125 0.4078
vn -0.0233 0.8926 0.4503
vn 0.0030 0.3829 0.9238
vn 0.0684 0.7690 0.6356
vn 0.1212 0.3982 0.9092
vn -0.0150 0.9925 0.1210
usemtl None
s 1
f 42/1/1 41/2/2 5/3/3 11/4/4
f 10/5/5 4/6/6 3/7/7 7/8/8
f 43/9/9 12/10/10 1/11/11 40/12/12
f 8/13/13 13/14/14 2/15/15 9/16/16
f 14/17/17 13/14/14 8/13/13 7/8/8
f 7/8/8 8/13/13 9/16/16 10/5/5
f 42/1/1 43/9/9 13/14/14 14/17/17
f 7/8/8 3/7/7 6/18/18 14/17/17
f 41/2/2 44/19/19 16/20/20 5/3/3
f 3/7/7 15/21/21 17/22/22 6/18/18
f 15/21/21 29/23/23 23/24/24 17/22/22
f 46/25/25 45/26/26 21/27/27 24/28/28
f 19/29/29 27/30/30 31/31/31 30/32/32 25/33/33
f 4/6/6 20/34/34 15/21/21 3/7/7
f 28/35/35 33/36/36 26/37/37 18/38/38
f 44/19/19 46/25/25 24/28/28 16/20/20
f 25/39/33 30/40/32 32/41/39 29/23/23
f 31/42/31 27/43/30 26/37/37 33/36/36
f 28/35/35 18/38/38 22/44/40 23/24/24
f 28/35/35 23/24/24 29/23/23
f 33/36/36 32/41/39 30/40/32 31/42/31
f 28/35/35 29/23/23 32/41/39 33/36/36
f 20/34/34 25/39/33 29/23/23 15/21/21
f 18/38/38 34/45/41 36/46/42 22/44/40
f 45/26/26 47/47/43 35/48/44 21/27/27
f 34/45/41 37/49/45 39/50/46 36/46/42
f 47/47/43 48/51/47 38/52/48 35/48/44
f 18/38/38 26/37/37 37/49/45 34/45/41
f 36/46/42 39/50/46 48/51/47 47/47/43
f 22/44/40 36/46/42 47/47/43 45/26/26
f 17/22/22 23/24/24 46/25/25 44/19/19
f 23/24/24 22/44/40 45/26/26 46/25/25
f 6/18/18 17/22/22 44/19/19 41/2/2
f 11/4/4 12/10/10 43/9/9 42/1/1
f 13/14/14 43/9/9 40/12/12 2/15/15
f 14/17/17 6/18/18 41/2/2 42/1/1
f 20/34/34 54/53/49 55/54/50 25/39/33
f 4/6/6 51/55/51 54/53/49 20/34/34
f 40/12/12 56/56/52 50/57/53 2/15/15
f 1/11/11 49/58/54 56/56/52 40/12/12
f 9/16/16 52/59/55 53/60/56 10/5/5
f 10/5/5 53/60/56 51/55/51 4/6/6
f 2/15/15 50/57/53 52/59/55 9/16/16
f 31/61/31 59/62/57 57/63/58 27/64/30
f 25/39/33 55/54/50 58/65/59 30/66/32
f 30/66/32 58/65/59 59/62/57 31/61/31
