# Blender v2.91.0 OBJ File: 'PetTest.blend'
# www.blender.org
mtllib mushroom.mtl
o Plane.007_Plane.011
v -2.224023 0.134665 -16.859032
v -2.056630 0.147751 -16.861803
v -2.225979 0.124252 -17.026464
v -2.058587 0.137339 -17.029236
v -2.262595 0.126520 -16.942127
v -2.020015 0.145484 -16.946140
v -2.139887 0.143546 -16.822815
v -2.142722 0.128457 -17.065453
v -2.269016 0.112115 -16.809631
v -2.007080 0.132592 -16.813967
v -2.272077 0.095822 -17.071630
v -2.010142 0.116299 -17.075966
v -2.329374 0.099370 -16.939657
v -1.949784 0.129045 -16.945940
v -2.137361 0.126013 -16.752958
v -2.141797 0.102402 -17.132639
v -2.146853 -0.072992 -16.908646
v -2.102190 -0.069500 -16.909384
v -2.147375 -0.075770 -16.953320
v -2.102712 -0.072278 -16.954060
v -2.157145 -0.075165 -16.930817
v -2.092420 -0.070105 -16.931889
v -2.124404 -0.070622 -16.898981
v -2.125161 -0.074648 -16.963722
v -2.176273 0.071886 -16.899099
v -2.095339 0.078213 -16.900438
v -2.177219 0.066852 -16.980053
v -2.096284 0.073179 -16.981392
v -2.194922 0.067948 -16.939276
v -2.077635 0.077117 -16.941216
v -2.135593 0.076180 -16.881588
v -2.136964 0.068885 -16.998903
vt 0.092263 0.820802
vt 0.189440 0.908600
vt 0.154653 0.999883
vt 0.000129 0.862128
vt 0.179091 0.592454
vt 0.091313 0.689811
vt 0.000000 0.655100
vt 0.137649 0.500289
vt 0.320520 0.907756
vt 0.361832 1.000000
vt 0.310170 0.591407
vt 0.344895 0.500000
vt 0.407585 0.679275
vt 0.499859 0.637866
vt 0.408468 0.810479
vt 0.499859 0.845310
vt 0.278842 0.814793
vt 0.224812 0.815706
vt 0.247515 0.755753
vt 0.252413 0.755948
vt 0.185170 0.779146
vt 0.184258 0.725171
vt 0.244384 0.748253
vt 0.244010 0.752852
vt 0.220864 0.685375
vt 0.247455 0.744247
vt 0.315525 0.775057
vt 0.255462 0.751959
vt 0.274863 0.684335
vt 0.314637 0.720973
vt 0.255946 0.747272
vt 0.252316 0.744123
vn -0.0772 0.9962 0.0398
vn -0.1626 0.9863 0.0264
vn 0.1414 0.9493 -0.2808
vn -0.0786 0.9291 -0.3614
vn 0.0217 0.9978 -0.0623
vn 0.0082 0.9997 0.0235
vn -0.2963 0.9151 -0.2735
vn -0.3778 0.9243 -0.0530
vn -0.1785 0.9821 -0.0590
vn 0.2276 0.9717 -0.0631
vn 0.0062 0.9890 -0.1474
vn -0.2912 0.9423 0.1649
vn -0.0796 0.9837 -0.1611
vn -0.0715 0.9668 0.2452
vn -0.1646 0.9757 -0.1446
vn 0.1465 0.9765 0.1577
vn -0.9050 0.4250 -0.0158
vn -0.6481 0.4697 0.5994
vn -0.6994 0.1617 0.6962
vn -0.9949 0.1003 0.0054
vn -0.0288 0.5463 0.8371
vn 0.5866 0.5662 0.5790
vn 0.6883 0.2702 0.6732
vn -0.0025 0.2379 0.9713
vn 0.8270 0.5604 -0.0445
vn 0.9669 0.2536 -0.0271
vn -0.6626 0.3927 -0.6377
vn -0.7157 0.0752 -0.6944
vn 0.5722 0.4893 -0.6582
vn -0.0491 0.4384 -0.8974
vn -0.0254 0.1157 -0.9930
vn 0.6721 0.1837 -0.7173
usemtl None
s 1
f 8/1/1 4/2/2 12/3/3 16/4/4
f 5/5/5 3/6/6 11/7/7 13/8/8
f 4/2/2 6/9/9 14/10/10 12/3/3
f 1/11/11 5/5/5 13/8/8 9/12/12
f 7/13/13 1/11/11 9/12/12 15/14/14
f 6/9/9 2/15/15 10/16/16 14/10/10
f 3/6/6 8/1/1 16/4/4 11/7/7
f 2/15/15 7/13/13 15/14/14 10/16/16
f 30/17/17 28/18/18 20/19/19 22/20/20
f 32/21/21 27/22/22 19/23/23 24/24/24
f 28/18/18 32/21/21 24/24/24 20/19/19
f 27/22/22 29/25/25 21/26/26 19/23/23
f 26/27/27 30/17/17 22/20/20 18/28/28
f 25/29/29 31/30/30 23/31/31 17/32/32
f 1/11/11 7/13/13 31/30/30 25/29/29
f 3/6/6 5/5/5 29/25/25 27/22/22
f 6/9/9 4/2/2 28/18/18 30/17/17
f 5/5/5 1/11/11 25/29/29 29/25/25
f 4/2/2 8/1/1 32/21/21 28/18/18
f 2/15/15 6/9/9 30/17/17 26/27/27
f 8/1/1 3/6/6 27/22/22 32/21/21
f 7/13/13 2/15/15 26/27/27 31/30/30
f 31/30/30 26/27/27 18/28/28 23/31/31
f 25/29/29 17/32/32 21/26/26 29/25/25
