# Blender v2.91.0 OBJ File: 'PetTest.blend'
# www.blender.org
mtllib RightForeGroundRocks.mtl
o Cube.001
v 3.653651 -0.499062 -13.857472
v 5.929375 -0.461806 -13.206781
v 5.929375 0.431102 -13.206781
v 3.912014 -0.461806 -13.504755
v 3.912014 -0.073791 -13.504755
v 3.577746 -0.461806 -14.377753
v 5.967717 0.431102 -13.466370
v 6.025675 0.663167 -13.470404
v 3.900503 -0.228835 -17.485600
v 4.266057 0.246014 -17.409786
v 4.296565 0.524428 -17.412354
v 5.937027 0.586522 -17.419697
v 6.035246 0.636829 -13.837678
v 4.345625 0.535445 -16.795101
v 5.723842 0.586246 -17.090479
v 6.035246 1.058602 -13.837678
v 4.345104 0.769753 -16.684677
v 5.723842 0.924004 -17.090479
v 4.257830 0.253317 -13.718929
v 3.992867 0.221348 -14.052144
v 3.798195 0.202100 -14.014841
v 3.912024 0.221348 -13.504817
v 4.521009 0.507676 -13.713673
v 4.005481 0.468449 -14.430320
v 4.642969 0.844832 -14.279665
v 4.476747 0.858757 -14.657785
v 3.635994 -0.461806 -14.772101
v 4.039534 -0.447946 -15.307670
v 4.089366 0.221348 -14.705469
v 4.470187 0.217356 -15.087226
v 4.140811 0.512476 -14.599429
v 4.500327 0.480736 -15.004708
v 4.744200 0.586681 -15.064920
v 4.535798 0.566128 -14.768250
v 4.502275 0.901998 -14.813162
v 4.735276 0.848177 -15.004525
v 3.849483 -0.250391 -16.075651
v 3.649571 -0.250624 -16.238281
v 4.216447 0.296682 -16.075670
v 3.902884 0.279520 -16.239063
v 4.247611 0.448411 -16.078279
v 4.047046 0.447008 -16.240868
v 4.369340 0.532841 -16.048656
v 4.168574 0.531599 -16.189619
v 4.171430 0.771956 -16.196426
v 4.372272 0.771382 -16.065826
v 3.708162 0.073286 -13.742990
v 3.586619 0.048606 -14.300221
v 3.951081 0.199099 -17.411938
v 4.163331 0.235448 -17.409786
v 4.346571 0.204791 -15.108423
v 4.087029 0.054579 -15.184928
v 3.700626 0.053586 -14.765383
v 3.967392 0.208667 -14.723418
v 3.901473 0.162338 -16.077808
v 4.067825 0.258678 -16.076143
v 3.701559 0.249535 -16.240435
v 4.616277 1.192751 -16.541561
v 5.783630 1.323352 -16.885149
v 4.974207 1.280796 -14.281073
v 4.772740 1.294472 -14.639063
v 6.173398 1.452493 -14.010817
v 4.815681 1.350716 -14.867029
v 5.189970 1.396740 -15.082980
v 6.352732 1.440843 -14.635632
v 6.396789 1.452975 -14.768759
v 4.504822 1.331074 -16.228226
v 4.765522 1.337251 -16.015059
v 5.787310 1.387339 -15.994552
v 5.617272 1.387002 -16.104103
v 6.039441 0.552830 -13.409913
v 4.286042 0.382136 -17.494436
v 3.963384 0.342643 -14.213143
v 4.468578 0.346954 -15.049518
v 4.042651 0.371590 -14.713367
v 4.008043 0.368983 -16.268696
v 4.216154 0.369833 -16.099699
v 5.023177 0.342209 -12.986059
v 5.076340 0.572822 -13.103467
v 5.374292 0.565488 -13.378174
v 5.298938 0.889057 -13.411360
v 5.536243 1.404078 -13.556860
v 5.058796 0.459688 -12.993483
v 4.831098 -0.461806 -12.749178
v 4.831098 0.178656 -12.749178
v 3.645717 -0.258823 -17.292145
v 3.689156 0.164601 -17.284838
v 3.515055 -0.239452 -16.279442
v 3.354162 -0.228573 -16.635551
v 3.390250 0.123193 -16.629482
v 5.367139 1.412073 -14.386161
v 3.558193 0.164448 -16.278301
v 4.392167 0.475462 -14.155107
v 4.235333 0.387035 -14.013186
v 4.608155 0.578304 -14.169006
v 4.509968 0.609321 -14.625710
v 5.429925 1.429336 -14.758605
v 4.292056 0.243808 -17.579664
v 5.945172 0.443359 -17.509975
v 5.951186 0.305031 -17.595201
v 4.222446 -0.058176 -17.606234
v 5.887136 0.054567 -17.668739
v 4.114162 -0.120262 -17.559263
v 4.872848 1.226281 -14.295187
v 4.595221 1.124374 -16.025551
v 4.981443 1.265490 -15.112843
v 4.975343 1.395489 -14.990087
v 4.769176 1.203179 -14.433027
v 5.074060 1.247024 -13.980120
vt 0.216161 0.283690
vt 0.213645 0.270171
vt 0.287195 0.234789
vt 0.291909 0.258520
vt 0.335865 0.221270
vt 0.299700 0.189250
vt 0.324389 0.140780
vt 0.442985 0.002172
vt 0.451325 0.208386
vt 0.300086 0.020612
vt 0.883264 0.472184
vt 0.777314 0.339640
vt 0.808661 0.354010
vt 0.895602 0.457522
vt 0.726622 0.305736
vt 0.701628 0.288868
vt 0.766821 0.167272
vt 0.806038 0.178245
vt 0.246608 0.019176
vt 0.473027 0.306291
vt 0.583807 0.373018
vt 0.571840 0.414450
vt 0.469367 0.343109
vt 0.076842 0.415463
vt 0.210719 0.393296
vt 0.215258 0.439415
vt 0.089969 0.443202
vt 0.712314 0.203377
vt 0.671625 0.276424
vt 0.605215 0.230913
vt 0.634566 0.183313
vt 0.240910 0.327712
vt 0.284473 0.300172
vt 0.276421 0.338417
vt 0.267764 0.361150
vt 0.188267 0.047794
vt 0.242074 0.197769
vt 0.194870 0.217543
vt 0.142296 0.062544
vt 0.731452 0.351701
vt 0.711509 0.346463
vt 0.752212 0.328488
vt 0.067515 0.390866
vt 0.188155 0.353737
vt 0.137812 0.253271
vt 0.066192 0.096650
vt 0.250965 0.520481
vt 0.105941 0.529158
vt 0.487098 0.387389
vt 0.565836 0.450564
vt 0.530481 0.566171
vt 0.461316 0.494201
vt 0.748940 0.000621
vt 0.801907 0.000000
vt 0.345709 0.486345
vt 0.338681 0.393547
vt 0.882317 0.752314
vt 0.853592 0.786523
vt 0.704787 0.711514
vt 0.734673 0.674927
vt 0.322998 0.351841
vt 0.711362 0.033167
vt 0.343583 0.261825
vt 0.323040 0.312881
vt 0.860274 0.813458
vt 0.711897 0.743986
vt 0.590214 0.329144
vt 0.471324 0.268009
vt 0.586820 0.300777
vt 0.064616 0.366806
vt 0.055287 0.349700
vt 0.164324 0.309719
vt 0.169194 0.321693
vt 0.041057 0.317108
vt 0.000000 0.187259
vt 0.251650 0.412241
vt 0.292888 0.525793
vt 0.839891 0.204800
vt 0.845304 0.216569
vt 0.856620 0.492076
vt 0.763152 0.375917
vt 0.699213 0.325978
vt 0.678909 0.308436
vt 0.650960 0.298063
vt 0.590214 0.252349
vt 0.856978 0.239002
vt 0.607843 0.019657
vt 0.499211 0.696250
vt 0.626231 0.702591
vt 0.626399 0.752202
vt 0.515729 0.795184
vt 0.609927 0.519195
vt 0.754578 0.541692
vt 0.671589 0.667816
vt 0.495843 0.675710
vt 0.281527 0.650408
vt 0.441278 0.683786
vt 0.413508 0.836088
vt 0.251792 0.713225
vt 0.706759 0.976955
vt 0.559226 0.955557
vt 0.603720 0.835278
vt 0.313764 0.623935
vt 0.472879 0.674009
vt 0.056817 0.752447
vt 0.047703 0.655658
vt 0.974940 0.619346
vt 0.837756 0.569519
vt 0.054396 0.612386
vt 0.226612 0.601793
vt 0.377233 0.344350
vt 0.590214 0.000000
vt 1.000000 0.271228
vt 1.000000 0.320422
vt 0.864473 0.272416
vt 0.933990 0.411836
vt 0.845076 0.335672
vt 0.686725 0.784964
vt 0.708149 0.792015
vt 0.675552 0.823594
vt 0.305513 0.504581
vt 0.275929 0.418717
vt 0.846299 0.002178
vt 0.847842 0.186414
vt 0.927208 0.016308
vt 0.943718 0.214319
vt 0.963138 0.232333
vt 0.727075 0.780180
vt 0.832568 0.868403
vt 0.696302 0.689789
vt 0.242466 0.960798
vn -0.6367 0.6704 -0.3810
vn -0.3010 0.9366 -0.1792
vn -0.4459 0.8928 0.0634
vn -0.3963 0.9057 0.1502
vn -0.5689 0.6876 0.4512
vn -0.8766 0.2789 0.3921
vn -0.7342 0.0714 0.6751
vn -0.1461 0.0000 0.9893
vn -0.1631 0.5081 0.8457
vn -0.7190 -0.0146 0.6948
vn -0.4534 0.0527 0.8897
vn -0.4278 0.7660 0.4798
vn -0.6044 0.5274 0.5971
vn -0.6558 0.0672 0.7519
vn -0.8735 0.4198 0.2464
vn -0.7738 0.5100 0.3757
vn -0.4849 0.7597 -0.4332
vn -0.6027 0.4880 -0.6313
vn -0.9268 0.0027 0.3754
vn -0.1280 0.2567 0.9579
vn 0.3682 0.2229 0.9026
vn 0.0150 0.9559 0.2932
vn -0.1642 0.8651 0.4740
vn -0.7337 0.4281 0.5276
vn -0.5755 0.7908 -0.2083
vn -0.8889 0.4478 -0.0967
vn -0.7414 0.4373 0.5089
vn -0.4655 0.8031 -0.3720
vn -0.7513 0.4750 0.4580
vn -0.9213 0.2901 0.2589
vn -0.6953 0.3129 -0.6471
vn -0.8488 0.1613 -0.5034
vn -0.9068 0.3936 0.1507
vn -0.6353 0.7722 0.0037
vn -0.5365 0.8194 -0.2019
vn -0.9980 0.0590 -0.0211
vn -0.8801 0.4741 -0.0262
vn -0.7672 0.5241 -0.3697
vn -0.8997 0.1275 -0.4175
vn -0.3174 0.8996 0.2998
vn -0.6558 0.6350 0.4082
vn -0.4321 0.8529 0.2929
vn -0.7791 0.2181 0.5876
vn -0.9348 0.2227 -0.2767
vn -0.7620 0.6206 -0.1850
vn -0.9709 0.1310 -0.2005
vn -0.9216 0.2254 -0.3159
vn -0.7593 0.2290 0.6091
vn -0.1514 0.9230 0.3536
vn 0.3897 0.5925 0.7049
vn 0.5265 0.0825 0.8462
vn -0.2674 0.2480 0.9311
vn -0.0347 0.7956 -0.6048
vn -0.0263 0.5202 -0.8536
vn -0.8488 0.2812 0.4477
vn -0.6060 0.7014 0.3751
vn -0.8915 0.2449 -0.3810
vn -0.5672 0.7765 -0.2743
vn -0.7313 0.6436 -0.2257
vn -0.3244 0.9209 0.2159
vn -0.1610 0.8491 -0.5029
vn -0.3807 0.8915 0.2454
vn -0.4982 0.7958 0.3442
vn -0.9697 0.2260 0.0928
vn -0.5950 0.7908 0.1437
vn 0.3831 0.1123 0.9168
vn -0.2061 0.7536 0.6241
vn 0.1728 0.7145 0.6780
vn -0.2583 0.9656 -0.0299
vn -0.8163 0.5572 -0.1520
vn -0.6563 0.5205 0.5462
vn -0.8468 0.0787 0.5260
vn -0.6830 0.5864 -0.4354
vn -0.7727 0.5313 -0.3472
vn -0.2498 0.8103 -0.5300
vn -0.3413 0.6931 -0.6349
vn -0.2809 0.3406 -0.8972
vn -0.0269 0.9994 -0.0195
vn -0.0751 0.9971 0.0142
vn -0.1579 0.9857 0.0590
vn 0.1592 0.9328 0.3234
vn -0.0443 0.9988 -0.0190
vn -0.3481 0.9148 0.2050
vn -0.2014 0.9780 -0.0539
vn -0.0310 0.9989 -0.0354
vn -0.5726 0.8066 0.1465
vn -0.0713 0.9963 -0.0478
vn -0.2336 0.7499 -0.6189
vn -0.4279 0.7353 -0.5256
vn -0.0165 0.6869 0.7265
vn -0.7023 0.5074 0.4993
vn -0.4298 0.8598 0.2758
vn 0.3846 0.0000 0.9231
vn -0.4298 0.2027 -0.8798
vn -0.7616 0.1233 -0.6361
vn -0.6126 0.6142 -0.4974
vn -0.9945 0.1049 -0.0017
vn -0.8414 0.5403 -0.0105
vn -0.4158 0.8871 0.2004
vn -0.6489 0.6558 0.3859
vn -0.6491 0.6317 0.4237
vn -0.8188 0.5741 0.0020
vn -0.0303 0.3764 -0.9260
vn -0.5608 0.3471 -0.7516
vn -0.0328 0.1859 -0.9820
vn -0.3510 0.3663 -0.8617
vn -0.2896 0.3633 -0.8855
vn -0.7069 0.6070 0.3631
vn -0.3379 0.8727 -0.3523
usemtl None
s 1
f 29/1/1 54/2/2 21/3/3 20/4/4
f 22/5/5 21/3/3 47/6/6 5/7/7
f 84/8/8 85/9/9 5/7/7 4/10/10
f 38/11/11 57/12/12 92/13/13 88/14/14
f 76/15/15 42/16/16 11/17/17 72/18/18
f 4/10/10 5/7/7 47/6/6 1/19/19
f 83/20/20 71/21/21 8/22/22 79/23/23
f 41/24/24 32/25/25 33/26/26 43/27/27
f 14/28/28 44/29/29 45/30/30 17/31/31
f 75/32/32 73/33/33 24/34/34 31/35/35
f 6/36/36 48/37/37 53/38/38 27/39/39
f 56/40/40 39/41/41 40/42/42
f 11/17/17 42/16/16 44/29/29 14/28/28
f 77/43/43 74/44/44 32/25/25 41/24/24
f 52/45/45 28/46/46 27/39/39 53/38/38
f 43/27/27 33/26/26 36/47/47 46/48/48
f 80/49/49 13/50/50 16/51/51 81/52/52
f 12/53/53 99/54/54 72/18/18 11/17/17
f 81/52/52 25/55/55 95/56/56 80/49/49
f 79/23/23 8/22/22 13/50/50 80/49/49
f 36/57/47 35/58/57 63/59/58 106/60/59
f 93/61/60 31/35/35 24/34/34
f 12/53/53 11/17/17 14/28/28 15/62/61
f 19/63/62 20/4/4 21/3/3 22/5/5
f 94/64/63 93/61/60 24/34/34 73/33/33
f 35/58/57 26/65/64 61/66/65 63/59/58
f 7/67/66 78/68/67 85/9/9 3/69/68
f 39/70/41 56/71/40 51/72/69 30/73/70
f 28/46/46 52/45/45 55/74/71 37/75/72
f 74/44/44 30/73/70 29/1/1 75/32/32
f 36/47/47 33/26/26 34/76/73 35/77/57
f 31/35/35 34/76/73 33/26/26 32/25/25
f 40/42/42 10/78/74 50/79/75
f 57/12/12 38/11/11 37/80/72 55/81/71
f 76/15/15 40/42/42 39/41/41 77/82/43
f 41/83/24 43/84/27 44/29/29 42/16/16
f 43/84/27 46/85/48 45/30/30 44/29/29
f 54/2/2 29/1/1 30/73/70 51/72/69
f 47/6/6 21/3/3 48/37/37
f 52/45/45 53/38/38 54/2/2 51/72/69
f 21/3/3 54/2/2 53/38/38 48/37/37
f 56/40/40 40/42/42 57/12/12 55/81/71
f 51/72/69 56/71/40 55/74/71 52/45/45
f 40/42/42 50/79/75 49/86/76 57/12/12
f 1/19/19 47/6/6 48/37/37 6/36/36
f 15/62/61 14/28/28 17/31/31 18/87/77
f 65/88/78 97/89/79 91/90/80 62/91/81
f 69/92/82 68/93/83 64/94/84 66/95/85
f 67/96/86 70/97/87 59/98/88 58/99/89
f 64/94/84 97/89/79 65/88/78 66/95/85
f 81/100/52 16/101/51 62/91/81 82/102/90
f 68/103/83 69/104/82 70/97/87 67/96/86
f 17/105/31 45/106/30 67/96/86 58/99/89
f 46/107/48 36/57/47 106/60/59 105/108/91
f 45/106/30 46/109/48 105/110/91 67/96/86
f 42/16/16 76/15/15 77/82/43 41/83/24
f 32/25/25 74/44/44 75/32/32 31/35/35
f 19/63/62 94/64/63 73/33/33 20/4/4
f 39/70/41 30/73/70 74/44/44 77/43/43
f 29/1/1 20/4/4 73/33/33 75/32/32
f 78/68/67 7/67/66 71/21/21 83/20/20
f 40/42/42 76/15/15 72/18/18 10/78/74
f 19/63/62 78/68/67 83/20/20
f 19/63/62 83/20/20 79/23/23 23/111/92
f 2/112/93 3/69/68 85/9/9 84/8/8
f 85/9/9 78/68/67 19/63/62 22/5/5
f 49/86/76 9/113/94 86/114/95 87/115/96
f 89/116/97 90/117/98 87/115/96 86/114/95
f 57/12/12 49/86/76 87/115/96
f 57/12/12 87/115/96 90/117/98 92/13/13
f 88/14/14 92/13/13 90/117/98 89/116/97
f 19/63/62 23/111/92 93/61/60 94/64/63
f 60/118/99 104/119/100 109/120/101 82/102/90
f 80/49/49 95/56/56 93/61/60 23/111/92
f 25/55/55 26/121/64 96/122/102 95/56/56
f 96/122/102 26/121/64 35/77/57 34/76/73
f 34/76/73 31/35/35 96/122/102
f 95/56/56 96/122/102 31/35/35 93/61/60
f 99/54/54 100/123/103 98/124/104 72/18/18
f 98/124/104 100/123/103 102/125/105 101/126/106
f 72/18/18 98/124/104 101/126/106 10/78/74
f 50/79/75 10/78/74 101/126/106 103/127/107
f 49/86/76 50/79/75 103/127/107 9/113/94
f 104/119/100 108/128/108 25/129/55
f 82/102/90 109/120/101 25/129/55 81/100/52
f 106/60/59 63/59/58 107/130/109
f 107/130/109 64/94/84 106/60/59
f 105/108/91 106/60/59 64/94/84 68/93/83
f 107/130/109 63/59/58 97/89/79 64/94/84
f 67/96/86 105/110/91 68/103/83
f 22/5/5 5/7/7 85/9/9
f 25/129/55 108/128/108 61/66/65 26/65/64
f 25/129/55 109/120/101 104/119/100
f 61/66/65 91/90/80 97/89/79 63/59/58
f 62/91/81 91/90/80 82/102/90
f 82/102/90 91/90/80 61/66/65 60/118/99
f 23/111/92 79/23/23 80/49/49
f 108/128/108 104/119/100 60/118/99 61/66/65
f 18/131/77 17/105/31 58/99/89 59/98/88
