# Blender v2.91.0 OBJ File: 'PetTest.blend'
# www.blender.org
mtllib WaterfallMountain 1.mtl
o Plane.002_Plane.004
v 6.376994 1.446590 -23.192039
v 6.679482 1.446590 -22.238886
v 5.345580 0.565165 -20.817257
v 6.987267 0.768488 -21.338255
v 4.746391 0.563630 -22.352217
v 4.911405 0.565165 -21.233295
v 5.233565 1.363704 -20.855839
v 5.236505 1.446590 -20.939995
v 6.921944 1.446590 -21.474878
v 6.983479 1.253453 -21.300692
v 4.585886 1.252536 -22.395813
v 4.708384 1.446590 -22.365297
v 4.891781 1.446590 -21.270353
v 4.927793 1.291968 -21.073282
v 5.354703 0.432303 -20.792150
v 4.668352 0.503713 -22.439529
v 4.524675 0.439164 -21.055624
v 5.399065 -0.672266 -20.661329
v 7.197651 -0.789795 -20.633305
v 7.013906 0.571175 -21.248993
v 4.719697 -0.636768 -22.170382
v 4.662024 -0.713576 -21.102669
v 4.635109 0.025135 -21.116659
v 4.852366 0.110861 -22.375568
v 7.061511 0.218573 -21.089479
v 5.565325 -0.777465 -19.684929
v 7.252632 -0.511809 -19.699200
v 5.287287 -0.287369 -20.703814
v 5.418091 0.201305 -20.789865
v 7.097769 0.401894 -20.473473
v 7.156929 0.197051 -20.019880
v 5.555758 0.248377 -20.184145
v 5.342269 -0.009386 -19.769709
v 5.030824 -1.079833 -20.376890
v 4.485976 -1.056189 -21.749475
v 4.425129 -0.975769 -20.919685
v 5.030824 -1.697425 -20.376890
v 4.679573 -1.701181 -21.741055
v 4.425129 -1.593361 -20.919685
v 6.528238 1.446590 -22.715462
v 4.803117 0.565165 -21.879738
v 4.731058 1.273019 -21.821529
v 4.800082 1.446590 -21.817825
v 4.515446 0.471438 -21.747578
v 4.558162 -0.675172 -21.636526
v 4.529971 0.067998 -21.746113
v 4.322853 -1.015979 -21.334579
v 4.419652 -1.647271 -21.330370
vt 0.618457 0.701288
vt 0.590284 0.812433
vt 0.447395 0.747730
vt 0.490326 0.657491
vt 0.969441 0.460366
vt 0.696510 0.549803
vt 0.618624 0.442685
vt 0.940479 0.368992
vt 0.652133 0.705268
vt 0.999805 0.773309
vt 0.998043 0.871315
vt 0.638276 0.809304
vt 0.704404 0.565161
vt 0.979120 0.508373
vt 1.000000 0.676665
vt 0.669626 0.621297
vt 0.656431 0.586517
vt 0.544161 0.541102
vt 0.421479 0.757919
vt 0.444036 0.615517
vt 0.482575 0.514698
vt 0.604295 0.419545
vt 0.422420 0.467536
vt 0.590054 0.371353
vt 0.372718 0.584666
vt 0.326890 0.730134
vt 0.189512 0.612949
vt 0.233578 0.489745
vt 1.000000 0.084549
vt 0.906761 0.269262
vt 0.839634 0.194200
vt 0.816649 0.127268
vt 0.829612 0.000000
vt 0.926593 0.329715
vt 0.481922 0.308631
vt 0.424970 0.246993
vt 0.506417 0.048575
vt 0.584039 0.180711
vt 0.621309 0.240526
vt 0.295696 0.376596
vt 0.228833 0.319869
vt 0.324118 0.169433
vt 0.140150 0.473674
vt 0.184365 0.390001
vt 0.116051 0.252656
vt 0.207520 0.083803
vt 0.000000 0.421125
vt 0.062189 0.331996
vn -0.9720 0.1171 0.2036
vn -0.9734 0.1222 0.1936
vn -0.7913 0.6044 0.0927
vn -0.8396 0.5254 0.1379
vn 0.2654 0.3618 0.8936
vn -0.2181 0.3558 0.9087
vn -0.1072 0.3475 0.9315
vn 0.2583 0.1752 0.9500
vn -0.5656 0.8159 0.1195
vn 0.0000 1.0000 0.0000
vn -0.5072 0.8556 0.1025
vn -0.1418 0.8735 0.4656
vn 0.1197 0.9183 0.3772
vn -0.6084 0.7630 0.2182
vn -0.7986 0.2033 0.5664
vn -0.6827 0.5602 0.4691
vn -0.9127 0.3092 -0.2671
vn -0.8761 0.4758 -0.0772
vn -0.7368 0.3849 0.5557
vn -0.0656 0.3266 0.9428
vn -0.8037 -0.0731 0.5905
vn -0.4084 0.5242 0.7472
vn -0.9837 -0.1162 -0.1368
vn -0.9196 -0.1520 -0.3622
vn -0.9275 0.0566 -0.3693
vn -0.9695 0.2060 -0.1325
vn 0.9917 0.0947 -0.0866
vn 0.5746 0.7253 0.3790
vn 0.5760 0.8159 0.0499
vn 0.6416 0.5498 0.5348
vn 0.6964 0.2685 0.6655
vn 0.2179 0.3198 0.9221
vn -0.8135 0.0816 0.5758
vn -0.8145 0.1878 0.5488
vn -0.6555 0.1728 0.7351
vn -0.6699 0.3977 0.6269
vn -0.4364 0.8860 0.1567
vn -0.7418 0.4489 0.4982
vn -0.7941 0.3846 0.4706
vn -0.6827 0.4062 0.6073
vn -0.9255 0.0655 -0.3730
vn -0.9723 0.2236 -0.0679
vn -0.8819 -0.0406 0.4697
vn -0.7366 0.1458 0.6604
vn -0.8804 -0.2045 -0.4278
vn -0.9716 -0.1532 -0.1800
usemtl None
s 1
f 42/1/1 11/2/2 5/3/3 41/4/4
f 10/5/5 7/6/6 3/7/7 4/8/8
f 43/9/9 40/10/10 1/11/10 12/12/11
f 8/13/12 9/14/13 2/15/10 13/16/14
f 14/17/15 7/6/6 8/13/12 13/16/14
f 7/6/6 10/5/5 9/14/13 8/13/12
f 42/1/1 14/17/15 13/16/14 43/9/9
f 7/6/6 14/17/15 6/18/16 3/7/7
f 41/4/4 5/3/3 16/19/17 44/20/18
f 3/7/7 6/18/16 17/21/19 15/22/20
f 15/22/20 17/21/19 23/23/21 29/24/22
f 46/25/23 24/26/24 21/27/25 45/28/26
f 19/29/27 25/30/28 30/31/29 31/32/30 27/33/31
f 4/8/8 3/7/7 15/22/20 20/34/32
f 28/35/33 18/36/34 26/37/35 33/38/36
f 44/20/18 16/19/17 24/26/24 46/25/23
f 25/30/28 29/24/22 32/39/37 30/31/29
f 31/32/30 33/38/36 26/37/35 27/33/31
f 28/35/33 23/23/21 22/40/38 18/36/34
f 28/35/33 29/24/22 23/23/21
f 33/38/36 31/32/30 30/31/29 32/39/37
f 28/35/33 33/38/36 32/39/37 29/24/22
f 20/34/32 15/22/20 29/24/22 25/30/28
f 18/36/34 22/40/38 36/41/39 34/42/40
f 45/28/26 21/27/25 35/43/41 47/44/42
f 34/42/40 36/41/39 39/45/43 37/46/44
f 47/44/42 35/43/41 38/47/45 48/48/46
f 18/36/34 34/42/40 37/46/44 26/37/35
f 36/41/39 47/44/42 48/48/46 39/45/43
f 22/40/38 45/28/26 47/44/42 36/41/39
f 17/21/19 44/20/18 46/25/23 23/23/21
f 23/23/21 46/25/23 45/28/26 22/40/38
f 6/18/16 41/4/4 44/20/18 17/21/19
f 11/2/2 42/1/1 43/9/9 12/12/11
f 13/16/14 2/15/10 40/10/10 43/9/9
f 14/17/15 42/1/1 41/4/4 6/18/16
