# This file uses centimeters as units for non-parametric coordinates.

mtllib Ground.mtl
g default
v -8.107171 0.260149 4.385113
v -2.244385 0.244325 8.408307
v 5.804695 0.253039 6.223833
v 12.185263 0.265406 2.999241
v 8.086352 0.245684 8.050700
v 3.526136 0.239722 9.541755
v -8.944118 0.245842 8.000176
v -3.258344 0.242469 8.870877
v -11.411665 0.061049 7.699803
v -3.461959 0.093330 10.446152
v 4.069532 -0.747708 10.617462
v 13.870607 0.250292 6.169366
v 13.202274 -0.423638 7.461802
v 3.888019 -3.027061 11.129969
v -3.666445 -3.027061 11.129969
v -11.913030 -0.010779 9.536172
v -8.156496 -3.027061 11.129969
v 13.893291 -3.476063 9.650794
v 15.235333 -1.788924 8.148261
v -3.059738 -2.695087 -18.026900
v 12.952808 0.289806 -2.834501
v 12.443577 0.305332 -6.694435
v 9.561942 0.318335 -10.020105
v 5.345209 0.325061 -11.599074
v 0.703335 0.190510 -12.483151
v -2.760289 0.202886 -12.024039
v 16.240118 -2.275175 -2.448659
v 14.990247 -0.480305 -2.612845
v 14.354982 0.030292 1.012463
v 16.779862 -1.962424 1.711636
v 14.327167 -0.192641 -7.258106
v 12.485229 0.276203 -11.601277
v 5.634485 0.317160 -12.896027
v 0.654799 0.626131 -13.525311
v 16.144072 -2.404244 -7.237001
v 13.206093 -0.235060 -12.231014
v 5.939159 -0.873050 -13.975011
v 0.820379 -0.244951 -13.887988
v -2.935211 -0.556607 -13.690334
v -2.748082 0.550603 -13.337531
v 6.095792 -2.590865 -14.160404
v 13.971719 -2.474786 -12.030966
v -5.073760 0.321970 -10.830712
v 0.924687 -2.605727 -14.711755
v -7.136699 0.311353 -8.352382
v -6.431111 0.321045 -10.560531
v -2.813769 0.517203 -12.575218
v -5.224756 0.523976 -12.488855
v -10.444851 0.324060 -11.323385
v -5.956870 0.407005 -16.663440
v -10.067157 0.297565 -4.848848
v -10.360281 0.282941 -1.127987
v -9.157443 0.275102 0.705109
v -11.087546 0.273602 1.223203
v -11.865308 0.283008 -1.159461
v -12.213945 0.298482 -4.984040
v -14.960074 -2.239524 -1.126033
v -14.960074 -2.134044 2.787124
v -13.795607 0.053419 -1.134404
v -13.385606 0.155078 2.637045
v -14.303540 -0.066175 -5.571172
v -13.667262 0.433577 -14.509242
v -9.523132 -2.695087 -18.026900
v -13.796011 -0.334237 -15.752303
v -14.960074 -2.465435 -9.507089
v -13.276970 -1.095826 8.000537
v -12.650019 -2.446367 9.916092
v 8.184020 0.304520 -6.641560
v 3.448406 0.312762 -8.737903
v -1.111566 0.323146 -11.122909
v -5.324161 0.305070 -6.764162
v -7.142120 0.292478 -3.635951
v -8.410863 0.283844 -1.529933
v -7.318717 0.276922 0.190931
v -6.469560 0.264952 3.205664
v -0.805552 0.250460 6.757967
v 3.993889 0.251224 6.680792
v 6.059166 0.281952 -1.258538
v -4.976312 0.284223 -1.717814
v -0.226429 0.309558 -7.911101
v -0.499955 0.283635 -1.531517
vt 0.788517 0.993954
vt 0.833605 0.972903
vt 0.532112 0.049899
vt 0.387032 0.030045
vt 0.655604 0.065886
vt 0.778066 0.972380
vt 0.772946 0.964820
vt 0.825023 0.958505
vt 0.816841 0.945250
vt 0.901768 0.931473
vt 0.404665 0.100001
vt 0.883092 0.919704
vt 0.820579 0.133506
vt 0.875484 0.913687
vt 0.529947 0.113562
vt 0.930320 0.888492
vt 0.607642 0.140380
vt 0.904239 0.878958
vt 0.093340 0.046803
vt 0.945562 0.845360
vt 0.530022 0.162892
vt 0.407741 0.170458
vt 0.925456 0.839573
vt 0.195692 0.154469
vt 0.959913 0.807919
vt 0.589413 0.203324
vt 0.929468 0.804391
vt 0.515620 0.226548
vt 0.828583 0.214695
vt 0.709464 0.239842
vt 0.881228 0.118416
vt 0.571411 0.263277
vt 0.940980 0.756341
vt 0.291009 0.264716
vt 0.642613 0.037097
vt 0.445783 0.266998
vt 0.218084 0.286796
vt 0.669756 0.292740
vt 0.017494 0.297877
vt 0.342160 0.324965
vt 0.153670 0.325493
vt 0.657682 0.066504
vt 0.669634 0.019990
vt 0.208571 0.331321
vt 0.507445 0.339026
vt 0.853671 0.401183
vt 0.905753 0.395625
vt 0.148054 0.404446
vt 0.786782 0.052483
vt 0.123091 0.406045
vt 0.168700 0.406934
vt 0.784062 0.081823
vt 0.837816 0.433999
vt 0.197735 0.461313
vt 0.782742 0.479980
vt 0.511067 0.485884
vt 0.302257 0.491916
vt 0.881948 0.057869
vt 0.115040 0.518268
vt 0.152061 0.520128
vt 0.877686 0.097894
vt 0.420681 0.015128
vt 0.933333 0.107446
vt 0.273279 0.612310
vt 0.871102 0.622970
vt 0.777386 0.636824
vt 0.917934 0.643777
vt 0.429229 0.012049
vt 0.418359 0.027162
vt 0.428725 0.022400
vt 0.178471 0.673250
vt 0.135891 0.682484
vt 0.761743 0.695810
vt 0.454186 0.018050
vt 0.517080 0.701282
vt 0.453362 0.031127
vt 0.471939 0.019714
vt 0.471730 0.031808
vt 0.820821 0.770114
vt 0.340040 0.768750
vt 0.492887 0.021487
vt 0.511265 0.033276
vt 0.804748 0.938191
vt 0.228819 0.812527
vt 0.535866 0.017498
vt 0.539793 0.022391
vt 0.175946 0.907878
vt 0.655395 0.904385
vt 0.573145 0.017470
vt 0.559575 0.036857
vt 0.336878 0.908574
vt 0.463409 0.927031
vt 0.588967 0.002395
vt 0.758543 0.963212
vt 0.590368 0.007693
vt 0.604499 -0.001865
vt 0.317547 0.972199
vt 0.590367 0.030049
vt 0.588911 0.974891
vt 0.606566 0.002196
vt 0.469553 0.998513
vt 0.610018 0.013900
vt 0.992296 0.105937
vt 0.987626 0.073924
vt 0.968986 0.745465
vt 0.660788 0.001871
vn 0.000119 0.999992 0.003982
vn 0.000194 0.999992 0.004004
vn -0.034178 0.999368 0.009791
vn -0.023669 0.998297 0.053314
vn -0.000064 0.999992 0.003955
vn 0.075258 0.966230 0.246445
vn 0.058484 0.997989 0.024467
vn 0.001983 0.992923 0.118740
vn 0.000015 0.999992 0.003968
vn -0.291330 0.952438 0.089383
vn -0.424207 0.797819 0.428408
vn -0.013348 0.835464 0.549383
vn 0.121855 0.659531 0.741735
vn 0.041215 0.973998 0.222777
vn 0.148737 0.834211 0.531007
vn 0.305088 0.935864 0.176293
vn 0.110385 0.344579 0.932245
vn 0.212240 0.530797 0.820493
vn -0.035493 0.266288 0.963240
vn -0.105489 0.291171 0.950837
vn 0.458276 0.748445 0.479389
vn -0.008536 0.402668 -0.915306
vn -0.008318 0.380422 -0.924776
vn 0.018170 0.415762 -0.909292
vn 0.009336 0.316212 -0.948643
vn 0.758970 0.649111 -0.051176
vn 0.554967 0.831212 -0.033137
vn 0.424141 0.905590 -0.003286
vn 0.710019 0.703945 0.018304
vn 0.146522 0.989203 -0.002941
vn 0.484237 0.874783 -0.016410
vn 0.113781 0.993500 0.003567
vn -0.001075 0.999049 0.043584
vn 0.026345 0.962274 -0.270803
vn 0.016655 0.971340 -0.237110
vn 0.002448 0.998195 0.060009
vn 0.020436 0.999790 -0.001515
vn 0.277720 0.926208 -0.254971
vn 0.812572 0.578504 -0.071135
vn 0.621210 0.597973 -0.506484
vn 0.070086 0.424643 -0.902644
vn -0.003620 0.954037 -0.299666
vn 0.042540 0.976199 0.212664
vn 0.769214 0.241668 -0.591528
vn 0.084178 0.130991 -0.987803
vn 0.034017 0.993726 0.106540
vn 0.022892 0.997185 0.071407
vn -0.004564 0.998595 -0.052790
vn -0.006007 0.999344 0.035701
vn 0.000032 0.999991 0.004163
vn 0.012287 0.996592 0.081572
vn -0.037428 0.940996 -0.336342
vn -0.152132 0.969466 -0.192332
vn 0.000134 0.999992 0.004038
vn 0.000117 0.999992 0.004078
vn 0.000017 0.999992 0.004106
vn -0.431435 0.899709 0.066231
vn 0.000156 0.999992 0.004012
vn -0.059753 0.998209 0.002713
vn -0.097285 0.995040 -0.020774
vn -0.896863 0.440840 0.036013
vn -0.503495 0.863804 0.018301
vn -0.557913 0.828933 -0.040043
vn -0.984838 0.132775 -0.111645
vn -0.833130 0.538388 0.126618
vn -0.832526 0.491854 0.254912
vn -0.487479 0.873005 -0.015072
vn -0.724258 0.604579 -0.331563
vn -0.319813 0.162858 -0.933379
vn -0.688254 0.297663 0.661592
vn -0.000116 0.999992 0.004118
vn 0.000015 0.999991 0.004189
vn 0.000057 0.999991 0.004149
vn 0.000190 0.999992 0.004025
vn 0.000111 0.999992 0.003976
vn -0.000099 0.999992 0.003995
vn 0.000006 0.999992 0.003927
vn 0.000050 0.999992 0.003961
vn 0.000027 0.999992 0.004022
vn 0.000061 0.999992 0.004041
vn -0.000034 0.999992 0.003942
s 1
g CutOutAttempt_0011_Ground
usemtl initialShadingGroup
f 1/30/1 53/26/2 54/17/3 7/29/4
f 3/73/5 5/79/6 4/88/7
f 7/29/4 8/46/8 2/53/9 1/30/1
f 9/13/10 16/31/11 7/29/4
f 10/47/12 11/67/13 6/65/14 8/46/8
f 11/67/13 13/83/15 5/79/6 6/65/14
f 5/79/6 13/83/15 12/94/16 4/88/7
f 11/49/13 14/52/17 18/42/18 13/43/15
f 10/58/12 15/61/19 14/52/17 11/49/13
f 16/104/11 17/63/20 15/61/19 10/58/12
f 7/29/4 16/31/11 10/47/12 8/46/8
f 13/43/15 18/42/18 19/35/21 12/106/16
f 20/98/22 39/95/23 38/100/24 44/102/25
f 27/20/26 28/23/27 29/27/28 30/25/29
f 12/94/16 29/99/28 4/88/7
f 4/88/7 29/99/28 28/101/27 21/92/30
f 30/25/29 29/27/28 12/33/16 19/105/21
f 28/101/27 31/97/31 22/91/32 21/92/30
f 24/71/33 33/72/34 34/59/35 25/60/36
f 23/84/37 32/87/38 33/72/34 24/71/33
f 22/91/32 31/97/31 32/87/38 23/84/37
f 35/16/39 31/18/31 28/23/27 27/20/26
f 35/16/39 36/12/40 32/14/38 31/18/31
f 36/12/40 37/8/41 33/9/34 32/14/38
f 37/8/41 38/6/24 34/7/35 33/9/34
f 38/100/24 39/95/23 40/93/42 34/96/35
f 34/59/35 40/50/42 47/48/43 25/60/36
f 35/16/39 42/10/44 36/12/40
f 36/12/40 42/10/44 41/2/45 37/8/41
f 44/1/25 38/6/24 37/8/41 41/2/45
f 2/53/9 8/46/8 6/65/14
f 26/51/46 43/44/47 70/54/48
f 46/37/49 45/34/50 43/44/47
f 47/48/43 48/41/51 43/44/47 26/51/46
f 48/41/51 46/37/49 43/44/47
f 39/95/23 50/89/52 40/93/42
f 46/37/49 49/24/53 45/34/50
f 48/41/51 50/39/52 49/24/53 46/37/49
f 45/34/50 51/22/54 72/36/55 71/40/56
f 7/29/4 54/17/3 60/5/57 9/13/10
f 52/21/58 55/15/59 54/17/3 53/26/2
f 51/22/54 56/11/60 55/15/59 52/21/58
f 49/24/53 56/11/60 51/22/54 45/34/50
f 57/78/61 59/77/62 61/81/63 65/82/64
f 58/76/65 60/74/57 59/77/62 57/78/61
f 56/11/60 61/4/63 59/3/62 55/15/59
f 59/3/62 60/5/57 54/17/3 55/15/59
f 9/68/10 60/74/57 58/76/65 66/70/66
f 50/39/52 62/19/67 49/24/53
f 62/19/67 56/11/60 49/24/53
f 20/98/22 50/89/52 39/95/23
f 64/86/68 63/90/69 65/82/64
f 63/90/69 64/86/68 50/89/52
f 50/89/52 20/98/22 63/90/69
f 65/82/64 61/81/63 62/85/67 64/86/68
f 66/70/66 58/76/65 67/69/70
f 66/70/66 67/69/70 16/62/11 9/68/10
f 40/50/42 50/39/52 48/41/51 47/48/43
f 25/60/36 47/48/43 26/51/46
f 16/104/11 67/103/70 17/63/20
f 50/89/52 64/86/68 62/85/67
f 56/11/60 62/19/67 61/4/63
f 21/92/30 3/73/5 4/88/7
f 23/84/37 68/80/71 21/92/30 22/91/32
f 24/71/33 69/64/72 68/80/71 23/84/37
f 70/54/48 24/71/33 25/60/36 26/51/46
f 70/54/48 69/64/72 24/71/33
f 70/54/48 71/40/56 80/57/73 69/64/72
f 73/28/74 52/21/58 53/26/2 74/32/75
f 72/36/55 51/22/54 52/21/58 73/28/74
f 71/40/56 70/54/48 43/44/47 45/34/50
f 68/80/71 78/75/76 21/92/30
f 2/53/9 76/55/77 75/38/78 1/30/1
f 1/30/1 75/38/78 74/32/75 53/26/2
f 69/64/72 80/57/73 81/56/79 78/75/76
f 75/38/78 79/45/80 73/28/74 74/32/75
f 78/75/76 81/56/79 76/55/77 77/66/81
f 73/28/74 79/45/80 71/40/56 72/36/55
f 21/92/30 78/75/76 77/66/81 3/73/5
f 76/55/77 81/56/79 79/45/80 75/38/78
f 81/56/79 80/57/73 71/40/56 79/45/80
f 78/75/76 68/80/71 69/64/72
f 3/73/5 77/66/81 6/65/14 5/79/6
f 6/65/14 77/66/81 76/55/77 2/53/9
